{
	"patcher" : 	{
		"fileversion" : 1,
		"appversion" : 		{
			"major" : 7,
			"minor" : 3,
			"revision" : 4,
			"architecture" : "x86",
			"modernui" : 1
		}
,
		"rect" : [ 746.0, 171.0, 736.0, 720.0 ],
		"bglocked" : 0,
		"openinpresentation" : 0,
		"default_fontsize" : 12.0,
		"default_fontface" : 0,
		"default_fontname" : "Arial",
		"gridonopen" : 1,
		"gridsize" : [ 15.0, 15.0 ],
		"gridsnaponopen" : 1,
		"objectsnaponopen" : 1,
		"statusbarvisible" : 2,
		"toolbarvisible" : 1,
		"lefttoolbarpinned" : 0,
		"toptoolbarpinned" : 0,
		"righttoolbarpinned" : 0,
		"bottomtoolbarpinned" : 0,
		"toolbars_unpinned_last_save" : 0,
		"tallnewobj" : 0,
		"boxanimatetime" : 200,
		"enablehscroll" : 1,
		"enablevscroll" : 1,
		"devicewidth" : 0.0,
		"description" : "",
		"digest" : "",
		"tags" : "",
		"style" : "",
		"subpatcher_template" : "",
		"boxes" : [ 			{
				"box" : 				{
					"id" : "obj-26",
					"maxclass" : "newobj",
					"numinlets" : 2,
					"numoutlets" : 1,
					"outlettype" : [ "" ],
					"patching_rect" : [ 434.0, 222.0, 158.0, 22.0 ],
					"style" : "",
					"text" : "if $i1 == 0 then 127 else $i2"
				}

			}
, 			{
				"box" : 				{
					"id" : "obj-22",
					"maxclass" : "newobj",
					"numinlets" : 2,
					"numoutlets" : 1,
					"outlettype" : [ "int" ],
					"patching_rect" : [ 399.0, 162.5, 61.0, 22.0 ],
					"style" : "",
					"text" : "random 6"
				}

			}
, 			{
				"box" : 				{
					"id" : "obj-20",
					"maxclass" : "newobj",
					"numinlets" : 2,
					"numoutlets" : 1,
					"outlettype" : [ "int" ],
					"patching_rect" : [ 433.5, 69.5, 61.0, 22.0 ],
					"style" : "",
					"text" : "random 5"
				}

			}
, 			{
				"box" : 				{
					"id" : "obj-19",
					"maxclass" : "newobj",
					"numinlets" : 2,
					"numoutlets" : 3,
					"outlettype" : [ "bang", "bang", "int" ],
					"patching_rect" : [ 409.25, 107.0, 40.0, 22.0 ],
					"style" : "",
					"text" : "uzi 1"
				}

			}
, 			{
				"box" : 				{
					"id" : "obj-17",
					"maxclass" : "number",
					"numinlets" : 1,
					"numoutlets" : 2,
					"outlettype" : [ "", "bang" ],
					"parameter_enable" : 0,
					"patching_rect" : [ 504.0, 14.0, 50.0, 22.0 ],
					"style" : ""
				}

			}
, 			{
				"box" : 				{
					"id" : "obj-15",
					"maxclass" : "toggle",
					"numinlets" : 1,
					"numoutlets" : 1,
					"outlettype" : [ "int" ],
					"parameter_enable" : 0,
					"patching_rect" : [ 346.0, 14.0, 24.0, 24.0 ],
					"style" : ""
				}

			}
, 			{
				"box" : 				{
					"id" : "obj-13",
					"maxclass" : "newobj",
					"numinlets" : 2,
					"numoutlets" : 1,
					"outlettype" : [ "" ],
					"patching_rect" : [ 414.0, 333.0, 48.0, 22.0 ],
					"style" : "",
					"text" : "pack i i"
				}

			}
, 			{
				"box" : 				{
					"id" : "obj-7",
					"maxclass" : "newobj",
					"numinlets" : 2,
					"numoutlets" : 1,
					"outlettype" : [ "int" ],
					"patching_rect" : [ 574.0, 162.5, 68.0, 22.0 ],
					"style" : "",
					"text" : "random 16"
				}

			}
, 			{
				"box" : 				{
					"id" : "obj-5",
					"maxclass" : "newobj",
					"numinlets" : 2,
					"numoutlets" : 1,
					"outlettype" : [ "int" ],
					"patching_rect" : [ 484.0, 162.5, 68.0, 22.0 ],
					"style" : "",
					"text" : "random 90"
				}

			}
, 			{
				"box" : 				{
					"id" : "obj-1",
					"maxclass" : "newobj",
					"numinlets" : 2,
					"numoutlets" : 1,
					"outlettype" : [ "bang" ],
					"patching_rect" : [ 399.0, 39.0, 58.0, 22.0 ],
					"style" : "",
					"text" : "metro 10"
				}

			}
, 			{
				"box" : 				{
					"fontname" : "Arial",
					"fontsize" : 12.0,
					"id" : "obj-11",
					"maxclass" : "newobj",
					"numinlets" : 2,
					"numoutlets" : 1,
					"outlettype" : [ "int" ],
					"patching_rect" : [ 38.0, 392.0, 32.5, 22.0 ],
					"style" : "",
					"text" : "- 21"
				}

			}
, 			{
				"box" : 				{
					"fontname" : "Arial",
					"fontsize" : 12.0,
					"id" : "obj-8",
					"maxclass" : "message",
					"numinlets" : 2,
					"numoutlets" : 1,
					"outlettype" : [ "" ],
					"patching_rect" : [ 38.0, 425.0, 34.0, 22.0 ],
					"style" : "",
					"text" : "$1 0"
				}

			}
, 			{
				"box" : 				{
					"fontname" : "Arial",
					"fontsize" : 12.0,
					"id" : "obj-6",
					"linecount" : 2,
					"maxclass" : "comment",
					"numinlets" : 1,
					"numoutlets" : 0,
					"patching_rect" : [ 38.0, 332.0, 150.0, 33.0 ],
					"style" : "",
					"text" : "Set MIDI note number of\nstring here"
				}

			}
, 			{
				"box" : 				{
					"fontname" : "Arial",
					"fontsize" : 12.0,
					"id" : "obj-2",
					"maxclass" : "number",
					"maximum" : 108,
					"minimum" : 21,
					"numinlets" : 1,
					"numoutlets" : 2,
					"outlettype" : [ "", "bang" ],
					"parameter_enable" : 0,
					"patching_rect" : [ 38.0, 365.0, 50.0, 22.0 ],
					"style" : ""
				}

			}
, 			{
				"box" : 				{
					"fontname" : "Arial",
					"fontsize" : 12.0,
					"id" : "obj-89",
					"maxclass" : "message",
					"numinlets" : 2,
					"numoutlets" : 1,
					"outlettype" : [ "" ],
					"patching_rect" : [ 62.0, 469.5, 65.0, 22.0 ],
					"style" : "",
					"text" : "allnotesoff"
				}

			}
, 			{
				"box" : 				{
					"fontname" : "Arial",
					"fontsize" : 12.0,
					"id" : "obj-87",
					"linecount" : 2,
					"maxclass" : "comment",
					"numinlets" : 1,
					"numoutlets" : 0,
					"patching_rect" : [ 123.5, 402.0, 66.0, 33.0 ],
					"style" : "",
					"text" : "\"Input 0\n to amp 0\""
				}

			}
, 			{
				"box" : 				{
					"fontname" : "Arial",
					"fontsize" : 12.0,
					"id" : "obj-86",
					"linecount" : 2,
					"maxclass" : "comment",
					"numinlets" : 1,
					"numoutlets" : 0,
					"patching_rect" : [ 201.0, 402.0, 61.0, 33.0 ],
					"style" : "",
					"text" : "\"input 0\n  off\""
				}

			}
, 			{
				"box" : 				{
					"fontname" : "Arial",
					"fontsize" : 12.0,
					"id" : "obj-84",
					"linecount" : 2,
					"maxclass" : "comment",
					"numinlets" : 1,
					"numoutlets" : 0,
					"patching_rect" : [ 46.0, 578.0, 210.0, 33.0 ],
					"style" : "",
					"text" : "\"Channel 3 goes to Amp 19\"\n(Indices start from 0)"
				}

			}
, 			{
				"box" : 				{
					"fontname" : "Arial",
					"fontsize" : 12.0,
					"id" : "obj-82",
					"maxclass" : "message",
					"numinlets" : 2,
					"numoutlets" : 1,
					"outlettype" : [ "" ],
					"patching_rect" : [ 46.0, 614.0, 34.0, 22.0 ],
					"style" : "",
					"text" : "19 3"
				}

			}
, 			{
				"box" : 				{
					"fontname" : "Arial",
					"fontsize" : 12.0,
					"id" : "obj-80",
					"maxclass" : "comment",
					"numinlets" : 1,
					"numoutlets" : 0,
					"patching_rect" : [ 38.0, 502.0, 196.0, 20.0 ],
					"style" : "",
					"text" : "Passthrough for first 15 channels"
				}

			}
, 			{
				"box" : 				{
					"fontname" : "Arial",
					"fontsize" : 12.0,
					"id" : "obj-77",
					"maxclass" : "newobj",
					"numinlets" : 2,
					"numoutlets" : 0,
					"patcher" : 					{
						"fileversion" : 1,
						"appversion" : 						{
							"major" : 7,
							"minor" : 3,
							"revision" : 4,
							"architecture" : "x86",
							"modernui" : 1
						}
,
						"rect" : [ 362.0, 156.0, 640.0, 480.0 ],
						"bglocked" : 0,
						"openinpresentation" : 0,
						"default_fontsize" : 12.0,
						"default_fontface" : 0,
						"default_fontname" : "Arial",
						"gridonopen" : 1,
						"gridsize" : [ 15.0, 15.0 ],
						"gridsnaponopen" : 1,
						"objectsnaponopen" : 1,
						"statusbarvisible" : 2,
						"toolbarvisible" : 1,
						"lefttoolbarpinned" : 0,
						"toptoolbarpinned" : 0,
						"righttoolbarpinned" : 0,
						"bottomtoolbarpinned" : 0,
						"toolbars_unpinned_last_save" : 0,
						"tallnewobj" : 0,
						"boxanimatetime" : 200,
						"enablehscroll" : 1,
						"enablevscroll" : 1,
						"devicewidth" : 0.0,
						"description" : "",
						"digest" : "",
						"tags" : "",
						"style" : "",
						"subpatcher_template" : "",
						"visible" : 1,
						"boxes" : [ 							{
								"box" : 								{
									"fontname" : "Arial",
									"fontsize" : 12.0,
									"id" : "obj-6",
									"maxclass" : "comment",
									"numinlets" : 1,
									"numoutlets" : 0,
									"patching_rect" : [ 50.0, 13.5, 150.0, 20.0 ],
									"style" : "",
									"text" : "Message In"
								}

							}
, 							{
								"box" : 								{
									"fontname" : "Arial",
									"fontsize" : 12.0,
									"id" : "obj-3",
									"maxclass" : "comment",
									"numinlets" : 1,
									"numoutlets" : 0,
									"patching_rect" : [ 146.5, 13.5, 150.0, 20.0 ],
									"style" : "",
									"text" : "For selecting MIDI device"
								}

							}
, 							{
								"box" : 								{
									"fontname" : "Arial",
									"fontsize" : 12.0,
									"id" : "obj-74",
									"maxclass" : "newobj",
									"numinlets" : 1,
									"numoutlets" : 2,
									"outlettype" : [ "int", "int" ],
									"patching_rect" : [ 99.25, 160.0, 47.0, 22.0 ],
									"style" : "",
									"text" : "t 0 121"
								}

							}
, 							{
								"box" : 								{
									"fontname" : "Arial",
									"fontsize" : 12.0,
									"id" : "obj-67",
									"maxclass" : "newobj",
									"numinlets" : 2,
									"numoutlets" : 2,
									"outlettype" : [ "", "" ],
									"patching_rect" : [ 50.0, 100.0, 96.0, 22.0 ],
									"style" : "",
									"text" : "route allnotesoff"
								}

							}
, 							{
								"box" : 								{
									"fontname" : "Arial",
									"fontsize" : 12.0,
									"id" : "obj-14",
									"maxclass" : "newobj",
									"numinlets" : 2,
									"numoutlets" : 1,
									"outlettype" : [ "int" ],
									"patching_rect" : [ 212.5, 160.0, 34.0, 22.0 ],
									"style" : "",
									"text" : "+ 16"
								}

							}
, 							{
								"box" : 								{
									"fontname" : "Arial",
									"fontsize" : 12.0,
									"id" : "obj-13",
									"maxclass" : "newobj",
									"numinlets" : 1,
									"numoutlets" : 2,
									"outlettype" : [ "int", "int" ],
									"patching_rect" : [ 162.5, 131.0, 69.0, 22.0 ],
									"style" : "",
									"text" : "unpack 0 0"
								}

							}
, 							{
								"box" : 								{
									"fontname" : "Arial",
									"fontsize" : 12.0,
									"id" : "obj-1",
									"maxclass" : "newobj",
									"numinlets" : 3,
									"numoutlets" : 0,
									"patching_rect" : [ 146.5, 197.0, 80.0, 22.0 ],
									"style" : "",
									"text" : "ctlout"
								}

							}
, 							{
								"box" : 								{
									"comment" : "",
									"id" : "obj-75",
									"index" : 2,
									"maxclass" : "inlet",
									"numinlets" : 0,
									"numoutlets" : 1,
									"outlettype" : [ "" ],
									"patching_rect" : [ 146.5, 40.0, 25.0, 25.0 ],
									"style" : ""
								}

							}
, 							{
								"box" : 								{
									"comment" : "",
									"id" : "obj-76",
									"index" : 1,
									"maxclass" : "inlet",
									"numinlets" : 0,
									"numoutlets" : 1,
									"outlettype" : [ "" ],
									"patching_rect" : [ 50.0, 40.0, 25.0, 25.0 ],
									"style" : ""
								}

							}
 ],
						"lines" : [ 							{
								"patchline" : 								{
									"destination" : [ "obj-1", 0 ],
									"source" : [ "obj-13", 0 ]
								}

							}
, 							{
								"patchline" : 								{
									"destination" : [ "obj-14", 0 ],
									"source" : [ "obj-13", 1 ]
								}

							}
, 							{
								"patchline" : 								{
									"destination" : [ "obj-1", 1 ],
									"source" : [ "obj-14", 0 ]
								}

							}
, 							{
								"patchline" : 								{
									"destination" : [ "obj-13", 0 ],
									"source" : [ "obj-67", 1 ]
								}

							}
, 							{
								"patchline" : 								{
									"destination" : [ "obj-74", 0 ],
									"source" : [ "obj-67", 0 ]
								}

							}
, 							{
								"patchline" : 								{
									"destination" : [ "obj-1", 1 ],
									"source" : [ "obj-74", 1 ]
								}

							}
, 							{
								"patchline" : 								{
									"destination" : [ "obj-1", 0 ],
									"source" : [ "obj-74", 0 ]
								}

							}
, 							{
								"patchline" : 								{
									"destination" : [ "obj-1", 0 ],
									"source" : [ "obj-75", 0 ]
								}

							}
, 							{
								"patchline" : 								{
									"destination" : [ "obj-67", 0 ],
									"source" : [ "obj-76", 0 ]
								}

							}
 ]
					}
,
					"patching_rect" : [ 448.0, 619.0, 95.0, 22.0 ],
					"saved_object_attributes" : 					{
						"description" : "",
						"digest" : "",
						"globalpatchername" : "",
						"style" : "",
						"tags" : ""
					}
,
					"style" : "",
					"text" : "p mrp-controller"
				}

			}
, 			{
				"box" : 				{
					"fontname" : "Arial",
					"fontsize" : 12.0,
					"id" : "obj-61",
					"linecount" : 2,
					"maxclass" : "message",
					"numinlets" : 2,
					"numoutlets" : 1,
					"outlettype" : [ "" ],
					"patching_rect" : [ 38.0, 522.0, 315.0, 35.0 ],
					"style" : "",
					"text" : "0 0, 1 1, 2 2, 3 3, 4 4, 5 5, 6 6, 7 7, 8 8, 9 9, 10 10, 11 11, 12 12, 13 13, 14 14"
				}

			}
, 			{
				"box" : 				{
					"fontname" : "Arial",
					"fontsize" : 12.0,
					"id" : "obj-24",
					"maxclass" : "message",
					"numinlets" : 2,
					"numoutlets" : 1,
					"outlettype" : [ "" ],
					"patching_rect" : [ 293.0, 442.0, 41.0, 22.0 ],
					"style" : "",
					"text" : "127 1"
				}

			}
, 			{
				"box" : 				{
					"fontname" : "Arial",
					"fontsize" : 12.0,
					"id" : "obj-25",
					"maxclass" : "message",
					"numinlets" : 2,
					"numoutlets" : 1,
					"outlettype" : [ "" ],
					"patching_rect" : [ 249.0, 442.0, 32.5, 22.0 ],
					"style" : "",
					"text" : "1 1"
				}

			}
, 			{
				"box" : 				{
					"fontname" : "Arial",
					"fontsize" : 12.0,
					"id" : "obj-23",
					"linecount" : 2,
					"maxclass" : "comment",
					"numinlets" : 1,
					"numoutlets" : 0,
					"patching_rect" : [ 278.0, 402.0, 150.0, 33.0 ],
					"style" : "",
					"text" : "Format: (amp #, input #)\n127 means input is off"
				}

			}
, 			{
				"box" : 				{
					"fontname" : "Arial",
					"fontsize" : 12.0,
					"id" : "obj-21",
					"maxclass" : "message",
					"numinlets" : 2,
					"numoutlets" : 1,
					"outlettype" : [ "" ],
					"patching_rect" : [ 201.0, 442.0, 41.0, 22.0 ],
					"style" : "",
					"text" : "127 0"
				}

			}
, 			{
				"box" : 				{
					"fontname" : "Arial",
					"fontsize" : 12.0,
					"id" : "obj-18",
					"maxclass" : "message",
					"numinlets" : 2,
					"numoutlets" : 1,
					"outlettype" : [ "" ],
					"patching_rect" : [ 157.0, 442.0, 32.5, 22.0 ],
					"style" : "",
					"text" : "0 0"
				}

			}
, 			{
				"box" : 				{
					"fontname" : "Arial",
					"fontsize" : 12.0,
					"id" : "obj-12",
					"maxclass" : "comment",
					"numinlets" : 1,
					"numoutlets" : 0,
					"patching_rect" : [ 439.25, 436.5, 188.5, 20.0 ],
					"style" : "",
					"text" : "Select \"MRP Controller\" here first"
				}

			}
, 			{
				"box" : 				{
					"fontname" : "Arial",
					"fontsize" : 12.0,
					"id" : "obj-10",
					"maxclass" : "newobj",
					"numinlets" : 1,
					"numoutlets" : 1,
					"outlettype" : [ "bang" ],
					"patching_rect" : [ 484.0, 462.0, 60.0, 22.0 ],
					"style" : "",
					"text" : "loadbang"
				}

			}
, 			{
				"box" : 				{
					"fontname" : "Arial",
					"fontsize" : 12.0,
					"id" : "obj-9",
					"maxclass" : "message",
					"numinlets" : 2,
					"numoutlets" : 1,
					"outlettype" : [ "" ],
					"patching_rect" : [ 484.0, 489.0, 20.0, 22.0 ],
					"style" : "",
					"text" : "1"
				}

			}
, 			{
				"box" : 				{
					"allowdrag" : 0,
					"fontsize" : 13.0,
					"id" : "obj-3",
					"items" : [ "IAC Driver IAC Bus 1", ",", "IAC Driver IAC Bus 2", ",", "MRP Controller", ",", "to Max 1", ",", "to Max 2" ],
					"labelclick" : 1,
					"maxclass" : "umenu",
					"numinlets" : 1,
					"numoutlets" : 3,
					"outlettype" : [ "int", "", "" ],
					"parameter_enable" : 0,
					"patching_rect" : [ 448.0, 548.0, 171.0, 23.0 ],
					"style" : ""
				}

			}
, 			{
				"box" : 				{
					"fontname" : "Arial",
					"fontsize" : 13.0,
					"id" : "obj-4",
					"maxclass" : "newobj",
					"numinlets" : 2,
					"numoutlets" : 1,
					"outlettype" : [ "" ],
					"patching_rect" : [ 448.0, 514.5, 55.0, 23.0 ],
					"style" : "",
					"text" : "midiinfo"
				}

			}
 ],
		"lines" : [ 			{
				"patchline" : 				{
					"destination" : [ "obj-19", 0 ],
					"order" : 1,
					"source" : [ "obj-1", 0 ]
				}

			}
, 			{
				"patchline" : 				{
					"destination" : [ "obj-20", 0 ],
					"order" : 0,
					"source" : [ "obj-1", 0 ]
				}

			}
, 			{
				"patchline" : 				{
					"destination" : [ "obj-9", 0 ],
					"source" : [ "obj-10", 0 ]
				}

			}
, 			{
				"patchline" : 				{
					"destination" : [ "obj-8", 0 ],
					"source" : [ "obj-11", 0 ]
				}

			}
, 			{
				"patchline" : 				{
					"destination" : [ "obj-77", 0 ],
					"source" : [ "obj-13", 0 ]
				}

			}
, 			{
				"patchline" : 				{
					"destination" : [ "obj-1", 0 ],
					"source" : [ "obj-15", 0 ]
				}

			}
, 			{
				"patchline" : 				{
					"destination" : [ "obj-1", 1 ],
					"source" : [ "obj-17", 0 ]
				}

			}
, 			{
				"patchline" : 				{
					"destination" : [ "obj-77", 0 ],
					"source" : [ "obj-18", 0 ]
				}

			}
, 			{
				"patchline" : 				{
					"destination" : [ "obj-22", 0 ],
					"order" : 2,
					"source" : [ "obj-19", 0 ]
				}

			}
, 			{
				"patchline" : 				{
					"destination" : [ "obj-5", 0 ],
					"order" : 1,
					"source" : [ "obj-19", 0 ]
				}

			}
, 			{
				"patchline" : 				{
					"destination" : [ "obj-7", 0 ],
					"order" : 0,
					"source" : [ "obj-19", 0 ]
				}

			}
, 			{
				"patchline" : 				{
					"destination" : [ "obj-11", 0 ],
					"source" : [ "obj-2", 0 ]
				}

			}
, 			{
				"patchline" : 				{
					"destination" : [ "obj-19", 1 ],
					"source" : [ "obj-20", 0 ]
				}

			}
, 			{
				"patchline" : 				{
					"destination" : [ "obj-77", 0 ],
					"source" : [ "obj-21", 0 ]
				}

			}
, 			{
				"patchline" : 				{
					"destination" : [ "obj-26", 0 ],
					"source" : [ "obj-22", 0 ]
				}

			}
, 			{
				"patchline" : 				{
					"destination" : [ "obj-77", 0 ],
					"source" : [ "obj-24", 0 ]
				}

			}
, 			{
				"patchline" : 				{
					"destination" : [ "obj-77", 0 ],
					"source" : [ "obj-25", 0 ]
				}

			}
, 			{
				"patchline" : 				{
					"destination" : [ "obj-13", 0 ],
					"source" : [ "obj-26", 0 ]
				}

			}
, 			{
				"patchline" : 				{
					"destination" : [ "obj-77", 1 ],
					"source" : [ "obj-3", 1 ]
				}

			}
, 			{
				"patchline" : 				{
					"destination" : [ "obj-3", 0 ],
					"source" : [ "obj-4", 0 ]
				}

			}
, 			{
				"patchline" : 				{
					"destination" : [ "obj-26", 1 ],
					"source" : [ "obj-5", 0 ]
				}

			}
, 			{
				"patchline" : 				{
					"destination" : [ "obj-77", 0 ],
					"source" : [ "obj-61", 0 ]
				}

			}
, 			{
				"patchline" : 				{
					"destination" : [ "obj-13", 1 ],
					"source" : [ "obj-7", 0 ]
				}

			}
, 			{
				"patchline" : 				{
					"destination" : [ "obj-77", 0 ],
					"source" : [ "obj-8", 0 ]
				}

			}
, 			{
				"patchline" : 				{
					"destination" : [ "obj-77", 0 ],
					"source" : [ "obj-82", 0 ]
				}

			}
, 			{
				"patchline" : 				{
					"destination" : [ "obj-77", 0 ],
					"source" : [ "obj-89", 0 ]
				}

			}
, 			{
				"patchline" : 				{
					"destination" : [ "obj-4", 1 ],
					"source" : [ "obj-9", 0 ]
				}

			}
 ],
		"dependency_cache" : [  ],
		"autosave" : 0
	}

}
